<svg xmlns="http://www.w3.org/2000/svg" viewBox="0 0 64 60" shape-rendering="crispEdges"><g fill="#624c85"><path d="M7 8h3v3H7zM20 13h2v2h-2zM31 5h4v3h-4zM47 11h2v3h-2zM55 25h3v3h-3zM11 27h2v2h-2zM25 35h4v3h-4zM42 30h2v2h-2zM50 44h3v3h-3zM17 48h3v2h-3zM34 52h2v3h-2z"/></g><g fill="#b69cff"><path d="M8 9h2v2H8zM20 13h2v2h-2zM32 6h2v2h-2zM47 12h2v2h-2zM56 26h2v2h-2zM11 27h2v2h-2zM26 36h2v2h-2zM42 30h2v2h-2zM51 45h2v2h-2zM18 48h2v2h-2zM34 53h2v2h-2z"/></g><g fill="#ebe3ff"><path d="M31 5h1v1h-1zM25 35h1v1h-1zM50 44h1v1h-1z"/></g></svg>
